<svg width="112" height="32" viewBox="0 0 112 32" fill="none" xmlns="http://www.w3.org/2000/svg">
<g clip-path="url(#clip0_205_29913)">
<path d="M10.4083 13.6546C10.4083 13.3147 10.5265 13.0266 10.7626 12.7907C10.9987 12.5548 11.2866 12.4366 11.6271 12.4366C11.9672 12.4366 12.2564 12.5548 12.4916 12.7907C12.7277 13.0266 12.8456 13.3147 12.8456 13.6546V20.175C12.8456 20.7248 12.9499 21.2423 13.1599 21.7274C13.3699 22.2121 13.6517 22.6366 14.0051 23.0036C14.3591 23.3705 14.7784 23.6586 15.2635 23.8675C15.7479 24.0776 16.2658 24.1816 16.816 24.1816C17.3664 24.1816 17.8834 24.0776 18.3684 23.8675C18.8529 23.6586 19.2787 23.3705 19.6459 23.0036C20.013 22.6366 20.301 22.2121 20.5104 21.7274C20.7204 21.2423 20.8254 20.7248 20.8254 20.175V8.78409C20.8254 8.4442 20.9436 8.15516 21.1787 7.9202C21.4148 7.68427 21.7031 7.56614 22.0441 7.56614C22.3843 7.56614 22.6726 7.68427 22.9086 7.9202C23.1447 8.15516 23.262 8.4442 23.262 8.78409V20.175C23.262 21.0659 23.0919 21.9038 22.7515 22.6898C22.4104 23.4745 21.9511 24.1565 21.3758 24.7314C20.7983 25.3085 20.118 25.7665 19.3315 26.1064C18.545 26.4472 17.7066 26.6172 16.816 26.6172C15.7154 26.6172 14.7188 26.3758 13.8283 25.8907C12.9367 25.406 12.1904 24.7584 11.5881 23.9466C11.0116 24.7584 10.2772 25.406 9.38662 25.8907C8.49507 26.3758 7.49949 26.6172 6.3989 26.6172C5.50832 26.6172 4.66992 26.4472 3.88337 26.1064C3.09682 25.7665 2.4156 25.3085 1.83906 24.7314C1.26284 24.1565 0.810943 23.4745 0.484021 22.6898C0.15581 21.9038 -0.0078125 21.0659 -0.0078125 20.175V8.78409C-0.0078125 8.4442 0.110073 8.15516 0.346166 7.9202C0.581614 7.68427 0.869564 7.56614 1.21066 7.56614C1.55111 7.56614 1.83906 7.68427 2.07547 7.9202C2.31157 8.15516 2.42945 8.4442 2.42945 8.78409V20.175C2.42945 20.7248 2.53349 21.2423 2.74381 21.7274C2.95285 22.2121 3.23468 22.6366 3.58866 23.0036C3.94296 23.3705 4.36135 23.6586 4.84642 23.8675C5.33085 24.0776 5.84845 24.1816 6.3989 24.1816C7.4734 24.1816 8.39748 23.8025 9.17017 23.0425C9.94351 22.2836 10.3561 21.3279 10.4083 20.175V13.6546Z" fill="#080A0A"/>
<path d="M34.6612 10.0798C33.7957 10.0798 32.9766 10.2311 32.2043 10.5314C31.4309 10.8333 30.7365 11.2392 30.121 11.749C29.5048 12.2601 28.9933 12.8685 28.5881 13.5763C28.181 14.2834 27.9002 15.0433 27.742 15.8541H41.6183C41.4612 15.0433 41.1722 14.2834 40.7538 13.5763C40.3335 12.8685 39.8159 12.2601 39.2004 11.749C38.5849 11.2392 37.8898 10.8333 37.1171 10.5314C36.3447 10.2311 35.5257 10.0798 34.6612 10.0798ZM27.703 18.29C27.8341 19.1278 28.1092 19.9074 28.5286 20.6271C28.9479 21.3471 29.4655 21.9696 30.081 22.4927C30.6965 23.0167 31.3984 23.429 32.1846 23.7299C32.9702 24.0309 33.7957 24.1815 34.6612 24.1815C35.6297 24.1815 36.5344 24.0048 37.3728 23.652C38.2113 23.298 38.9579 22.8065 39.6133 22.1785C39.8494 21.9426 40.1374 21.8248 40.4788 21.8248C40.8189 21.8248 41.1072 21.9426 41.3433 22.1785C41.5794 22.4144 41.6963 22.7025 41.6963 23.0424C41.6963 23.3836 41.5794 23.6713 41.3433 23.9063C40.4788 24.8764 39.5015 25.5636 38.4148 25.9688C37.3271 26.3757 36.0761 26.5781 34.6612 26.5781C33.3506 26.5781 32.1253 26.3422 30.9855 25.8713C29.8459 25.3991 28.8429 24.7454 27.9781 23.9063C27.1136 23.0694 26.4324 22.0745 25.9341 20.9216C25.4368 19.7697 25.1875 18.5128 25.1875 17.15C25.1875 15.8413 25.4294 14.6169 25.9145 13.4781C26.3999 12.339 27.0672 11.3441 27.9198 10.4921C28.7701 9.64143 29.7799 8.96036 30.9465 8.44955C32.1121 7.93939 33.3763 7.65808 34.7391 7.60497C35.9969 7.60497 37.1822 7.85506 38.2969 8.35203C39.4104 8.84996 40.3995 9.51687 41.264 10.3547C42.1295 11.1935 42.8175 12.1755 43.328 13.3014C43.8391 14.4273 44.1207 15.6324 44.1728 16.915C44.226 17.3601 44.1142 17.7 43.8391 17.936C43.5641 18.1719 43.2694 18.29 42.955 18.29H27.703Z" fill="#080A0A"/>
<path d="M56.4395 13.6546C56.4395 13.3147 56.5577 13.0266 56.7938 12.7907C57.0299 12.5548 57.3179 12.4366 57.6583 12.4366C57.9985 12.4366 58.2877 12.5548 58.5228 12.7907C58.7589 13.0266 58.8768 13.3147 58.8768 13.6546V20.175C58.8768 20.7248 58.9812 21.2423 59.1912 21.7274C59.4012 22.2121 59.683 22.6366 60.0363 23.0036C60.3903 23.3705 60.8097 23.6586 61.2947 23.8675C61.7792 24.0776 62.2971 24.1816 62.8472 24.1816C63.3977 24.1816 63.9146 24.0776 64.3997 23.8675C64.8841 23.6586 65.3099 23.3705 65.6771 23.0036C66.0443 22.6366 66.3322 22.2121 66.5416 21.7274C66.7516 21.2423 66.8566 20.7248 66.8566 20.175V8.78409C66.8566 8.4442 66.9748 8.15516 67.2099 7.9202C67.446 7.68427 67.7343 7.56614 68.0754 7.56614C68.4155 7.56614 68.7038 7.68427 68.9399 7.9202C69.176 8.15516 69.2932 8.4442 69.2932 8.78409V20.175C69.2932 21.0659 69.1232 21.9038 68.7827 22.6898C68.4416 23.4745 67.9823 24.1565 67.4071 24.7314C66.8296 25.3085 66.1493 25.7665 65.3627 26.1064C64.5762 26.4472 63.7378 26.6172 62.8472 26.6172C61.7466 26.6172 60.7501 26.3758 59.8595 25.8907C58.968 25.406 58.2217 24.7584 57.6194 23.9466C57.0428 24.7584 56.3084 25.406 55.4179 25.8907C54.5263 26.3758 53.5307 26.6172 52.4302 26.6172C51.5396 26.6172 50.7012 26.4472 49.9146 26.1064C49.1281 25.7665 48.4469 25.3085 47.8703 24.7314C47.2941 24.1565 46.8422 23.4745 46.5149 22.6898C46.1871 21.9038 46.0234 21.0659 46.0234 20.175V8.78409C46.0234 8.4442 46.1413 8.15516 46.3774 7.9202C46.6129 7.68427 46.9008 7.56614 47.2419 7.56614C47.5824 7.56614 47.8703 7.68427 48.1067 7.9202C48.3428 8.15516 48.4607 8.4442 48.4607 8.78409V20.175C48.4607 20.7248 48.5647 21.2423 48.7751 21.7274C48.9841 22.2121 49.2659 22.6366 49.6199 23.0036C49.9742 23.3705 50.3926 23.6586 50.8777 23.8675C51.3621 24.0776 51.8797 24.1816 52.4302 24.1816C53.5046 24.1816 54.4287 23.8025 55.2014 23.0425C55.9748 22.2836 56.3874 21.3279 56.4395 20.175V13.6546Z" fill="#080A0A"/>
<path d="M80.6924 10.0798C79.827 10.0798 79.0079 10.2311 78.2355 10.5314C77.4622 10.8333 76.7677 11.2392 76.1522 11.749C75.5361 12.2601 75.0246 12.8685 74.6194 13.5763C74.2123 14.2834 73.9314 15.0433 73.7733 15.8541H87.6496C87.4924 15.0433 87.2035 14.2834 86.7851 13.5763C86.3648 12.8685 85.8472 12.2601 85.2316 11.749C84.6161 11.2392 83.9211 10.8333 83.1484 10.5314C82.376 10.2311 81.5569 10.0798 80.6924 10.0798ZM73.7343 18.29C73.8654 19.1278 74.1404 19.9074 74.5598 20.6271C74.9792 21.3471 75.4968 21.9696 76.1123 22.4927C76.7278 23.0167 77.4296 23.429 78.2159 23.7299C79.0014 24.0309 79.827 24.1815 80.6924 24.1815C81.6609 24.1815 82.5657 24.0048 83.4041 23.652C84.2425 23.298 84.9891 22.8065 85.6446 22.1785C85.8807 21.9426 86.1686 21.8248 86.51 21.8248C86.8501 21.8248 87.1384 21.9426 87.3745 22.1785C87.6106 22.4144 87.7275 22.7025 87.7275 23.0424C87.7275 23.3836 87.6106 23.6713 87.3745 23.9063C86.51 24.8764 85.5328 25.5636 84.4461 25.9688C83.3584 26.3757 82.1074 26.5781 80.6924 26.5781C79.3815 26.5781 78.1566 26.3422 77.0167 25.8713C75.8772 25.3991 74.8742 24.7454 74.0093 23.9063C73.1449 23.0694 72.4636 22.0745 71.9654 20.9216C71.468 19.7697 71.2188 18.5128 71.2188 17.15C71.2188 15.8413 71.4606 14.6169 71.9457 13.4781C72.4311 12.339 73.0985 11.3441 73.951 10.4921C74.8014 9.64143 75.8111 8.96036 76.9777 8.44955C78.1434 7.93939 79.4076 7.65808 80.7704 7.60497C82.0281 7.60497 83.2134 7.85506 84.3282 8.35203C85.4416 8.84996 86.4308 9.51687 87.2953 10.3547C88.1607 11.1935 88.8487 12.1755 89.3592 13.3014C89.8704 14.4273 90.1519 15.6324 90.2041 16.915C90.2572 17.3601 90.1455 17.7 89.8704 17.936C89.5953 18.1719 89.3006 18.29 88.9863 18.29H73.7343Z" fill="#080A0A"/>
<path d="M94.4522 17.15C94.4522 18.1198 94.6355 19.0294 95.0027 19.8801C95.3699 20.732 95.8736 21.4781 96.5159 22.119C97.1585 22.7617 97.9047 23.2655 98.7563 23.6314C99.608 23.9984 100.519 24.1812 101.488 24.1812C102.458 24.1812 103.375 23.9984 104.24 23.6314C105.104 23.2655 105.857 22.7617 106.501 22.119C107.142 21.4781 107.646 20.732 108.013 19.8801C108.38 19.0294 108.564 18.1198 108.564 17.15C108.564 16.1821 108.38 15.2651 108.013 14.4012C107.646 13.5364 107.142 12.7838 106.501 12.142C105.857 11.5009 105.104 10.9965 104.24 10.6296C103.375 10.2636 102.458 10.0798 101.488 10.0798C100.545 10.0798 99.6543 10.2562 98.8159 10.6103C97.9762 10.964 97.2438 11.4545 96.6144 12.0834C95.9851 12.7114 95.4749 13.4581 95.0816 14.3224C94.6883 15.1863 94.4783 16.129 94.4522 17.15ZM101.568 7.60497C102.825 7.60497 104.024 7.86053 105.164 8.37134C106.304 8.88214 107.306 9.56965 108.171 10.4335C109.036 11.2974 109.724 12.3065 110.235 13.4581C110.746 14.6101 111.001 15.8409 111.001 17.15C111.001 18.4339 110.752 19.6441 110.255 20.7842C109.756 21.9229 109.081 22.9243 108.23 23.7891C107.378 24.653 106.375 25.3341 105.223 25.8311C104.069 26.329 102.825 26.5781 101.488 26.5781C100.178 26.5781 98.9535 26.3419 97.8136 25.871C96.6731 25.3991 95.671 24.7451 94.8065 23.9063C93.9417 23.0694 93.2595 22.0742 92.7622 20.9216C92.264 19.7697 92.0156 18.5128 92.0156 17.15V2.61634C92.0156 2.27645 92.1338 1.98837 92.369 1.75244C92.6051 1.51652 92.8933 1.39839 93.2344 1.39839C93.5745 1.39839 93.8628 1.51652 94.0989 1.75244C94.334 1.98837 94.4522 2.27645 94.4522 2.61634V11.1796C95.3177 10.2366 96.3523 9.41902 97.5582 8.72443C98.7628 8.03145 100.099 7.65776 101.568 7.60497Z" fill="#080A0A"/>
</g>
<defs>
<clipPath id="clip0_205_29913">
<rect width="112" height="32" fill="white"/>
</clipPath>
</defs>
</svg>
